<?xml version="1.0" encoding="UTF-8" standalone="no"?>
<!DOCTYPE svg PUBLIC "-//W3C//DTD SVG 1.1//EN" "http://www.w3.org/Graphics/SVG/1.1/DTD/svg11.dtd">
<svg width="100%" height="100%" viewBox="0 0 15 23" version="1.1" xmlns="http://www.w3.org/2000/svg" xmlns:xlink="http://www.w3.org/1999/xlink" xml:space="preserve" xmlns:serif="http://www.serif.com/" style="fill-rule:evenodd;clip-rule:evenodd;stroke-linejoin:round;stroke-miterlimit:2;">
    <g transform="matrix(1,0,0,1,-621.479,-268.542)">
        <g transform="matrix(1,0,0,1,111.49,63.6049)">
            <g transform="matrix(1,0,0,1.04252,302.03,121.049)">
                <g transform="matrix(30,0,0,30,205.263,101.941)">
                    <path d="M0.125,-0.185L0.09,-0.548L0.09,-0.716L0.238,-0.716L0.238,-0.548L0.203,-0.185L0.125,-0.185ZM0.096,-0L0.096,-0.137L0.233,-0.137L0.233,-0L0.096,-0Z" style="fill:rgb(255,0,14);fill-rule:nonzero;"/>
                </g>
                <g transform="matrix(30,0,0,30,215.253,101.941)">
                    <path d="M0.125,-0.185L0.09,-0.548L0.09,-0.716L0.238,-0.716L0.238,-0.548L0.203,-0.185L0.125,-0.185ZM0.096,-0L0.096,-0.137L0.233,-0.137L0.233,-0L0.096,-0Z" style="fill:rgb(255,0,14);fill-rule:nonzero;"/>
                </g>
            </g>
        </g>
    </g>
</svg>
