<?xml version="1.0" encoding="UTF-8" standalone="no"?>
<!DOCTYPE svg PUBLIC "-//W3C//DTD SVG 1.1//EN" "http://www.w3.org/Graphics/SVG/1.1/DTD/svg11.dtd">
<svg width="100%" height="100%" viewBox="0 0 114 50" version="1.1" xmlns="http://www.w3.org/2000/svg" xmlns:xlink="http://www.w3.org/1999/xlink" xml:space="preserve" xmlns:serif="http://www.serif.com/" style="fill-rule:evenodd;clip-rule:evenodd;stroke-linecap:round;stroke-linejoin:round;stroke-miterlimit:1.5;">
    <g transform="matrix(1,0,0,1,-467.949,-360.266)">
        <g id="bw_audio_io" transform="matrix(1,0,0,1,21.4905,118.394)">
            <g transform="matrix(0.909922,0,0,1.03956,314.556,146.641)">
                <path d="M268.995,106.707C268.995,98.772 261.634,92.33 252.569,92.33L162.212,92.33C153.146,92.33 145.786,98.772 145.786,106.707L145.786,124.331C145.786,132.267 153.146,138.709 162.212,138.709L252.569,138.709C261.634,138.709 268.995,132.267 268.995,124.331L268.995,106.707Z" style="fill:white;stroke:black;stroke-width:1.54px;"/>
            </g>
            <g transform="matrix(1,0,0,1,5.75637,-0.75713)">
                <g transform="matrix(1,0,0,1,310.725,162.701)">
                    <g transform="matrix(16,0,0,16,207.253,101.941)">
                        <rect x="0.068" y="-0.716" width="0.145" height="0.716" style="fill-rule:nonzero;"/>
                    </g>
                    <g transform="matrix(16,0,0,16,211.699,101.941)">
                        <path d="M0.074,-0L0.074,-0.716L0.215,-0.716L0.508,-0.238L0.508,-0.716L0.642,-0.716L0.642,-0L0.497,-0L0.208,-0.467L0.208,-0L0.074,-0Z" style="fill-rule:nonzero;"/>
                    </g>
                </g>
                <g transform="matrix(1,0,0,1,310.608,179.648)">
                    <g transform="matrix(16,0,0,16,198.367,101.941)">
                        <path d="M0.043,-0.354C0.043,-0.426 0.054,-0.488 0.076,-0.537C0.092,-0.574 0.115,-0.606 0.143,-0.635C0.171,-0.664 0.202,-0.686 0.235,-0.7C0.28,-0.719 0.331,-0.728 0.39,-0.728C0.495,-0.728 0.58,-0.695 0.643,-0.63C0.706,-0.564 0.738,-0.473 0.738,-0.357C0.738,-0.241 0.706,-0.151 0.644,-0.086C0.581,-0.02 0.497,0.012 0.392,0.012C0.285,0.012 0.201,-0.02 0.138,-0.085C0.075,-0.15 0.043,-0.24 0.043,-0.354ZM0.192,-0.358C0.192,-0.277 0.211,-0.216 0.249,-0.174C0.286,-0.132 0.333,-0.111 0.391,-0.111C0.449,-0.111 0.496,-0.132 0.533,-0.174C0.57,-0.215 0.588,-0.277 0.588,-0.36C0.588,-0.442 0.57,-0.504 0.534,-0.544C0.498,-0.584 0.451,-0.604 0.391,-0.604C0.332,-0.604 0.284,-0.584 0.247,-0.543C0.211,-0.502 0.192,-0.441 0.192,-0.358Z" style="fill-rule:nonzero;"/>
                    </g>
                    <g transform="matrix(16,0,0,16,210.812,101.941)">
                        <path d="M0.072,-0.716L0.216,-0.716L0.216,-0.328C0.216,-0.267 0.218,-0.227 0.222,-0.208C0.228,-0.179 0.243,-0.156 0.266,-0.138C0.289,-0.12 0.321,-0.111 0.361,-0.111C0.402,-0.111 0.433,-0.12 0.454,-0.136C0.475,-0.153 0.487,-0.174 0.492,-0.198C0.496,-0.223 0.498,-0.263 0.498,-0.32L0.498,-0.716L0.643,-0.716L0.643,-0.34C0.643,-0.254 0.639,-0.193 0.631,-0.158C0.623,-0.122 0.609,-0.092 0.588,-0.068C0.567,-0.043 0.539,-0.024 0.503,-0.01C0.468,0.005 0.422,0.012 0.366,0.012C0.297,0.012 0.246,0.004 0.21,-0.011C0.175,-0.027 0.147,-0.048 0.126,-0.073C0.106,-0.098 0.092,-0.125 0.086,-0.152C0.076,-0.193 0.072,-0.254 0.072,-0.334L0.072,-0.716Z" style="fill-rule:nonzero;"/>
                    </g>
                    <g transform="matrix(16,0,0,16,222.367,101.941)">
                        <path d="M0.234,-0L0.234,-0.595L0.021,-0.595L0.021,-0.716L0.59,-0.716L0.59,-0.595L0.378,-0.595L0.378,-0L0.234,-0Z" style="fill-rule:nonzero;"/>
                    </g>
                </g>
            </g>
            <g transform="matrix(0.454961,0,0,1.01373,380.883,149.026)">
                <path d="M268.995,92.33L177.822,92.33C160.141,92.33 145.786,98.772 145.786,106.707L145.786,124.331C145.786,132.267 160.141,138.709 177.822,138.709L268.995,138.709L268.995,92.33Z" style="stroke:black;stroke-width:1.91px;"/>
            </g>
            <g transform="matrix(0.0721239,0,0,0.0686772,462.09,254.211)">
                <path d="M360.655,258.05L360.655,25C360.655,11.193 349.464,0 335.655,0L130.09,0C116.283,0 105.09,11.193 105.09,25L105.09,231.27C94.521,228.086 82.945,226.999 71.032,228.502C29.527,233.738 -0.293,268.3 4.427,305.695C9.146,343.091 46.616,369.159 88.121,363.921C128.136,358.872 155.09,326.775 155.09,290.74L155.09,50L310.654,50L310.654,196.794C300.063,193.594 288.464,192.497 276.52,194.004C235.016,199.241 205.197,233.802 209.916,271.197C214.635,308.592 252.104,334.661 293.61,329.424C332.951,324.458 360.655,293.275 360.655,258.05Z" style="fill:white;fill-rule:nonzero;"/>
            </g>
        </g>
    </g>
</svg>
