<?xml version="1.0" encoding="UTF-8" standalone="no"?>
<!DOCTYPE svg PUBLIC "-//W3C//DTD SVG 1.1//EN" "http://www.w3.org/Graphics/SVG/1.1/DTD/svg11.dtd">
<svg width="100%" height="100%" viewBox="0 0 127 49" version="1.1" xmlns="http://www.w3.org/2000/svg" xmlns:xlink="http://www.w3.org/1999/xlink" xml:space="preserve" xmlns:serif="http://www.serif.com/" style="fill-rule:evenodd;clip-rule:evenodd;stroke-linecap:round;stroke-linejoin:round;stroke-miterlimit:1.5;">
    <g transform="matrix(1,0,0,1,-615.455,-105.477)">
        <g id="bw_g_any_--" serif:id="bw_g_any_!!" transform="matrix(1,0,0,1,181.49,63.6049)">
            <g transform="matrix(0.909922,0,0,1.01373,314.556,-50.9745)">
                <path d="M268.995,106.707C268.995,98.772 261.817,92.33 252.977,92.33L161.804,92.33C152.963,92.33 145.786,98.772 145.786,106.707L145.786,124.331C145.786,132.267 152.963,138.709 161.804,138.709L252.977,138.709C261.817,138.709 268.995,132.267 268.995,124.331L268.995,106.707Z" style="fill:white;stroke:black;stroke-width:1.56px;"/>
            </g>
            <g transform="matrix(0.556365,0,0,1.01373,353.606,-50.9745)">
                <path d="M268.995,92.33L171.983,92.33C157.524,92.33 145.786,98.772 145.786,106.707L145.786,124.331C145.786,132.267 157.524,138.709 171.983,138.709L268.995,138.709L268.995,92.33Z" style="stroke:black;stroke-width:1.84px;"/>
            </g>
            <g transform="matrix(1,0,0,1,303.102,-50.1386)">
                <g transform="matrix(0.464009,0,0,0.464009,83.6531,52.2886)">
                    <path d="M172.084,101.558C172.084,99.349 170.291,97.555 168.081,97.555L160.075,97.555C157.866,97.555 156.072,99.349 156.072,101.558L156.072,109.564C156.072,111.774 157.866,113.567 160.075,113.567L168.081,113.567C170.291,113.567 172.084,111.774 172.084,109.564L172.084,101.558Z" style="fill:rgb(233,178,76);"/>
                </g>
                <g transform="matrix(0.464009,0,0,0.464009,93.6531,52.2886)">
                    <path d="M172.084,101.558C172.084,99.349 170.291,97.555 168.081,97.555L160.075,97.555C157.866,97.555 156.072,99.349 156.072,101.558L156.072,109.564C156.072,111.774 157.866,113.567 160.075,113.567L168.081,113.567C170.291,113.567 172.084,111.774 172.084,109.564L172.084,101.558Z" style="fill:rgb(233,178,76);"/>
                </g>
                <g transform="matrix(0.464009,0,0,0.464009,103.653,52.2886)">
                    <path d="M172.084,101.558C172.084,99.349 170.291,97.555 168.081,97.555L160.075,97.555C157.866,97.555 156.072,99.349 156.072,101.558L156.072,109.564C156.072,111.774 157.866,113.567 160.075,113.567L168.081,113.567C170.291,113.567 172.084,111.774 172.084,109.564L172.084,101.558Z" style="fill:rgb(233,178,76);"/>
                </g>
                <g transform="matrix(0.464009,0,0,0.464009,113.653,52.2886)">
                    <path d="M172.084,101.558C172.084,99.349 170.291,97.555 168.081,97.555L160.075,97.555C157.866,97.555 156.072,99.349 156.072,101.558L156.072,109.564C156.072,111.774 157.866,113.567 160.075,113.567L168.081,113.567C170.291,113.567 172.084,111.774 172.084,109.564L172.084,101.558Z" style="fill:rgb(233,178,76);"/>
                </g>
                <g transform="matrix(0.464009,0,0,0.464009,83.6531,62.2886)">
                    <path d="M172.084,101.558C172.084,99.349 170.291,97.555 168.081,97.555L160.075,97.555C157.866,97.555 156.072,99.349 156.072,101.558L156.072,109.564C156.072,111.774 157.866,113.567 160.075,113.567L168.081,113.567C170.291,113.567 172.084,111.774 172.084,109.564L172.084,101.558Z" style="fill:rgb(233,178,76);"/>
                </g>
                <g transform="matrix(0.464009,0,0,0.464009,93.6531,62.2886)">
                    <path d="M172.084,101.558C172.084,99.349 170.291,97.555 168.081,97.555L160.075,97.555C157.866,97.555 156.072,99.349 156.072,101.558L156.072,109.564C156.072,111.774 157.866,113.567 160.075,113.567L168.081,113.567C170.291,113.567 172.084,111.774 172.084,109.564L172.084,101.558Z" style="fill:rgb(233,178,76);"/>
                </g>
                <g transform="matrix(0.464009,0,0,0.464009,103.653,62.2886)">
                    <path d="M172.084,101.558C172.084,99.349 170.291,97.555 168.081,97.555L160.075,97.555C157.866,97.555 156.072,99.349 156.072,101.558L156.072,109.564C156.072,111.774 157.866,113.567 160.075,113.567L168.081,113.567C170.291,113.567 172.084,111.774 172.084,109.564L172.084,101.558Z" style="fill:rgb(233,178,76);"/>
                </g>
                <g transform="matrix(0.464009,0,0,0.464009,113.653,62.2886)">
                    <path d="M172.084,101.558C172.084,99.349 170.291,97.555 168.081,97.555L160.075,97.555C157.866,97.555 156.072,99.349 156.072,101.558L156.072,109.564C156.072,111.774 157.866,113.567 160.075,113.567L168.081,113.567C170.291,113.567 172.084,111.774 172.084,109.564L172.084,101.558Z" style="fill:rgb(233,178,76);"/>
                </g>
                <g transform="matrix(0.464009,0,0,0.464009,83.6531,72.2886)">
                    <path d="M172.084,101.558C172.084,99.349 170.291,97.555 168.081,97.555L160.075,97.555C157.866,97.555 156.072,99.349 156.072,101.558L156.072,109.564C156.072,111.774 157.866,113.567 160.075,113.567L168.081,113.567C170.291,113.567 172.084,111.774 172.084,109.564L172.084,101.558Z" style="fill:rgb(233,178,76);"/>
                </g>
                <g transform="matrix(0.464009,0,0,0.464009,93.6531,72.2886)">
                    <path d="M172.084,101.558C172.084,99.349 170.291,97.555 168.081,97.555L160.075,97.555C157.866,97.555 156.072,99.349 156.072,101.558L156.072,109.564C156.072,111.774 157.866,113.567 160.075,113.567L168.081,113.567C170.291,113.567 172.084,111.774 172.084,109.564L172.084,101.558Z" style="fill:rgb(233,178,76);"/>
                </g>
                <g transform="matrix(0.464009,0,0,0.464009,103.653,72.2886)">
                    <path d="M172.084,101.558C172.084,99.349 170.291,97.555 168.081,97.555L160.075,97.555C157.866,97.555 156.072,99.349 156.072,101.558L156.072,109.564C156.072,111.774 157.866,113.567 160.075,113.567L168.081,113.567C170.291,113.567 172.084,111.774 172.084,109.564L172.084,101.558Z" style="fill:rgb(233,178,76);"/>
                </g>
                <g transform="matrix(0.464009,0,0,0.464009,113.653,72.2886)">
                    <path d="M172.084,101.558C172.084,99.349 170.291,97.555 168.081,97.555L160.075,97.555C157.866,97.555 156.072,99.349 156.072,101.558L156.072,109.564C156.072,111.774 157.866,113.567 160.075,113.567L168.081,113.567C170.291,113.567 172.084,111.774 172.084,109.564L172.084,101.558Z" style="fill:rgb(233,178,76);"/>
                </g>
                <g transform="matrix(0.464009,0,0,0.464009,83.6531,82.2886)">
                    <path d="M172.084,101.558C172.084,99.349 170.291,97.555 168.081,97.555L160.075,97.555C157.866,97.555 156.072,99.349 156.072,101.558L156.072,109.564C156.072,111.774 157.866,113.567 160.075,113.567L168.081,113.567C170.291,113.567 172.084,111.774 172.084,109.564L172.084,101.558Z" style="fill:rgb(233,178,76);"/>
                </g>
                <g transform="matrix(0.464009,0,0,0.464009,93.6531,82.2886)">
                    <path d="M172.084,101.558C172.084,99.349 170.291,97.555 168.081,97.555L160.075,97.555C157.866,97.555 156.072,99.349 156.072,101.558L156.072,109.564C156.072,111.774 157.866,113.567 160.075,113.567L168.081,113.567C170.291,113.567 172.084,111.774 172.084,109.564L172.084,101.558Z" style="fill:rgb(233,178,76);"/>
                </g>
                <g transform="matrix(0.464009,0,0,0.464009,103.653,82.2886)">
                    <path d="M172.084,101.558C172.084,99.349 170.291,97.555 168.081,97.555L160.075,97.555C157.866,97.555 156.072,99.349 156.072,101.558L156.072,109.564C156.072,111.774 157.866,113.567 160.075,113.567L168.081,113.567C170.291,113.567 172.084,111.774 172.084,109.564L172.084,101.558Z" style="fill:rgb(233,178,76);"/>
                </g>
                <g transform="matrix(0.464009,0,0,0.464009,113.653,82.2886)">
                    <path d="M172.084,101.558C172.084,99.349 170.291,97.555 168.081,97.555L160.075,97.555C157.866,97.555 156.072,99.349 156.072,101.558L156.072,109.564C156.072,111.774 157.866,113.567 160.075,113.567L168.081,113.567C170.291,113.567 172.084,111.774 172.084,109.564L172.084,101.558Z" style="fill:rgb(233,178,76);"/>
                </g>
            </g>
            <g transform="matrix(1,0,0,1.04252,178.012,-34.0992)">
                <g transform="matrix(1,0,0,1,54.0186,4.93858)">
                    <g transform="matrix(30,0,0,30,205.263,101.941)">
                        <path d="M0.125,-0.185L0.09,-0.548L0.09,-0.716L0.238,-0.716L0.238,-0.548L0.203,-0.185L0.125,-0.185ZM0.096,-0L0.096,-0.137L0.233,-0.137L0.233,-0L0.096,-0Z" style="fill:rgb(255,0,14);fill-rule:nonzero;"/>
                    </g>
                    <g transform="matrix(30,0,0,30,215.253,101.941)">
                        <path d="M0.125,-0.185L0.09,-0.548L0.09,-0.716L0.238,-0.716L0.238,-0.548L0.203,-0.185L0.125,-0.185ZM0.096,-0L0.096,-0.137L0.233,-0.137L0.233,-0L0.096,-0Z" style="fill:rgb(255,0,14);fill-rule:nonzero;"/>
                    </g>
                </g>
                <g transform="matrix(1,0,0,0.959216,138.371,32.5759)">
                    <g transform="matrix(64,0,0,64,202.8,101.941)">
                        <path d="M0.12,-0.387L0.046,-0.444C0.069,-0.47 0.094,-0.495 0.119,-0.52C0.129,-0.529 0.136,-0.535 0.138,-0.538C0.13,-0.539 0.107,-0.545 0.068,-0.554C0.041,-0.561 0.022,-0.566 0.014,-0.569L0.042,-0.655C0.085,-0.638 0.123,-0.619 0.157,-0.598C0.149,-0.651 0.145,-0.694 0.145,-0.728L0.232,-0.728C0.232,-0.704 0.228,-0.661 0.219,-0.597C0.225,-0.6 0.239,-0.606 0.261,-0.616C0.29,-0.63 0.317,-0.641 0.342,-0.65L0.368,-0.562C0.332,-0.554 0.29,-0.546 0.242,-0.538L0.301,-0.472C0.313,-0.459 0.322,-0.448 0.329,-0.439L0.254,-0.39L0.188,-0.499C0.168,-0.464 0.145,-0.426 0.12,-0.387Z" style="fill-rule:nonzero;"/>
                    </g>
                </g>
            </g>
        </g>
    </g>
</svg>
