<?xml version="1.0" encoding="UTF-8" standalone="no"?>
<!DOCTYPE svg PUBLIC "-//W3C//DTD SVG 1.1//EN" "http://www.w3.org/Graphics/SVG/1.1/DTD/svg11.dtd">
<svg width="100%" height="100%" viewBox="0 0 127 49" version="1.1" xmlns="http://www.w3.org/2000/svg" xmlns:xlink="http://www.w3.org/1999/xlink" xml:space="preserve" xmlns:serif="http://www.serif.com/" style="fill-rule:evenodd;clip-rule:evenodd;stroke-linecap:round;stroke-linejoin:round;stroke-miterlimit:1.5;">
    <g transform="matrix(1,0,0,1,-615.455,-105.477)">
        <g id="bw_g_128--" serif:id="bw_g_128!!" transform="matrix(1,0,0,1,181.49,63.6049)">
            <g transform="matrix(0.909922,0,0,1.01373,314.556,-50.9745)">
                <path d="M268.995,106.707C268.995,98.772 261.817,92.33 252.977,92.33L161.804,92.33C152.963,92.33 145.786,98.772 145.786,106.707L145.786,124.331C145.786,132.267 152.963,138.709 161.804,138.709L252.977,138.709C261.817,138.709 268.995,132.267 268.995,124.331L268.995,106.707Z" style="fill:white;stroke:black;stroke-width:1.56px;"/>
            </g>
            <g transform="matrix(0.556365,0,0,1.01373,353.606,-50.9745)">
                <path d="M268.995,92.33L171.983,92.33C157.524,92.33 145.786,98.772 145.786,106.707L145.786,124.331C145.786,132.267 157.524,138.709 171.983,138.709L268.995,138.709L268.995,92.33Z" style="stroke:black;stroke-width:1.84px;"/>
            </g>
            <g transform="matrix(1,0,0,1,4.48629,-50.1386)">
                <g transform="matrix(1,0,0,1,310.608,28.4504)">
                    <g transform="matrix(16,0,0,16,201.906,101.941)">
                        <path d="M0.394,-0L0.256,-0L0.256,-0.517C0.206,-0.47 0.147,-0.436 0.079,-0.413L0.079,-0.538C0.115,-0.549 0.154,-0.572 0.196,-0.604C0.238,-0.637 0.267,-0.675 0.282,-0.719L0.394,-0.719L0.394,-0Z" style="fill-rule:nonzero;"/>
                    </g>
                    <g transform="matrix(16,0,0,16,210.804,101.941)">
                        <path d="M0.506,-0.127L0.506,-0L0.025,-0C0.03,-0.048 0.046,-0.094 0.072,-0.137C0.098,-0.18 0.149,-0.237 0.226,-0.309C0.288,-0.366 0.326,-0.405 0.34,-0.426C0.359,-0.454 0.368,-0.482 0.368,-0.51C0.368,-0.54 0.36,-0.564 0.344,-0.58C0.327,-0.597 0.304,-0.605 0.275,-0.605C0.247,-0.605 0.224,-0.596 0.207,-0.579C0.19,-0.562 0.18,-0.533 0.178,-0.493L0.041,-0.507C0.049,-0.582 0.075,-0.637 0.118,-0.669C0.161,-0.702 0.214,-0.719 0.279,-0.719C0.349,-0.719 0.405,-0.7 0.445,-0.662C0.486,-0.624 0.506,-0.576 0.506,-0.52C0.506,-0.487 0.5,-0.457 0.489,-0.427C0.477,-0.398 0.459,-0.368 0.434,-0.336C0.417,-0.315 0.387,-0.284 0.344,-0.245C0.3,-0.205 0.273,-0.179 0.261,-0.166C0.25,-0.153 0.241,-0.14 0.233,-0.127L0.506,-0.127Z" style="fill-rule:nonzero;"/>
                    </g>
                    <g transform="matrix(16,0,0,16,219.703,101.941)">
                        <path d="M0.16,-0.386C0.125,-0.401 0.099,-0.422 0.083,-0.448C0.067,-0.474 0.059,-0.503 0.059,-0.534C0.059,-0.588 0.077,-0.632 0.115,-0.667C0.152,-0.701 0.205,-0.719 0.273,-0.719C0.341,-0.719 0.394,-0.701 0.432,-0.667C0.469,-0.632 0.488,-0.588 0.488,-0.534C0.488,-0.501 0.48,-0.471 0.462,-0.446C0.445,-0.42 0.421,-0.4 0.39,-0.386C0.429,-0.37 0.46,-0.347 0.48,-0.316C0.501,-0.286 0.511,-0.25 0.511,-0.21C0.511,-0.144 0.49,-0.091 0.448,-0.049C0.406,-0.008 0.35,0.013 0.28,0.013C0.215,0.013 0.16,-0.004 0.117,-0.039C0.066,-0.079 0.041,-0.134 0.041,-0.205C0.041,-0.243 0.05,-0.279 0.069,-0.311C0.089,-0.344 0.119,-0.369 0.16,-0.386ZM0.188,-0.524C0.188,-0.497 0.196,-0.476 0.212,-0.46C0.227,-0.445 0.248,-0.438 0.273,-0.438C0.299,-0.438 0.32,-0.445 0.336,-0.461C0.352,-0.476 0.359,-0.498 0.359,-0.525C0.359,-0.551 0.352,-0.571 0.336,-0.587C0.321,-0.602 0.3,-0.61 0.275,-0.61C0.249,-0.61 0.228,-0.602 0.212,-0.586C0.196,-0.571 0.188,-0.55 0.188,-0.524ZM0.176,-0.218C0.176,-0.18 0.185,-0.151 0.205,-0.129C0.224,-0.108 0.248,-0.098 0.277,-0.098C0.306,-0.098 0.329,-0.108 0.348,-0.128C0.366,-0.149 0.375,-0.178 0.375,-0.216C0.375,-0.25 0.366,-0.277 0.347,-0.297C0.328,-0.317 0.304,-0.328 0.275,-0.328C0.242,-0.328 0.217,-0.316 0.2,-0.293C0.184,-0.27 0.176,-0.245 0.176,-0.218Z" style="fill-rule:nonzero;"/>
                    </g>
                </g>
                <g transform="matrix(1,0,0,1,310.725,11.5036)">
                    <g transform="matrix(16,0,0,16,206.355,101.941)">
                        <path d="M0.507,-0.541L0.375,-0.526C0.371,-0.553 0.363,-0.573 0.349,-0.586C0.335,-0.599 0.318,-0.606 0.296,-0.606C0.267,-0.606 0.242,-0.593 0.222,-0.567C0.202,-0.541 0.19,-0.487 0.185,-0.404C0.219,-0.445 0.261,-0.465 0.312,-0.465C0.369,-0.465 0.418,-0.443 0.459,-0.399C0.5,-0.356 0.521,-0.299 0.521,-0.23C0.521,-0.157 0.499,-0.098 0.456,-0.054C0.413,-0.01 0.358,0.012 0.291,0.012C0.218,0.012 0.159,-0.016 0.112,-0.072C0.066,-0.128 0.042,-0.22 0.042,-0.348C0.042,-0.479 0.067,-0.574 0.115,-0.632C0.164,-0.69 0.227,-0.719 0.304,-0.719C0.359,-0.719 0.404,-0.704 0.439,-0.673C0.475,-0.643 0.498,-0.598 0.507,-0.541ZM0.196,-0.241C0.196,-0.197 0.207,-0.162 0.227,-0.138C0.248,-0.114 0.271,-0.102 0.297,-0.102C0.323,-0.102 0.344,-0.111 0.361,-0.131C0.378,-0.151 0.386,-0.184 0.386,-0.229C0.386,-0.276 0.377,-0.31 0.359,-0.331C0.341,-0.353 0.318,-0.364 0.291,-0.364C0.264,-0.364 0.242,-0.353 0.224,-0.333C0.205,-0.312 0.196,-0.282 0.196,-0.241Z" style="fill-rule:nonzero;"/>
                    </g>
                    <g transform="matrix(16,0,0,16,215.253,101.941)">
                        <path d="M0.312,-0L0.312,-0.144L0.019,-0.144L0.019,-0.264L0.329,-0.719L0.444,-0.719L0.444,-0.265L0.533,-0.265L0.533,-0.144L0.444,-0.144L0.444,-0L0.312,-0ZM0.312,-0.265L0.312,-0.509L0.147,-0.265L0.312,-0.265Z" style="fill-rule:nonzero;"/>
                    </g>
                </g>
            </g>
            <g transform="matrix(1,0,0,1,303.102,-50.1386)">
                <g transform="matrix(0.464009,0,0,0.464009,83.6531,52.2886)">
                    <path d="M172.084,101.558C172.084,99.349 170.291,97.555 168.081,97.555L160.075,97.555C157.866,97.555 156.072,99.349 156.072,101.558L156.072,109.564C156.072,111.774 157.866,113.567 160.075,113.567L168.081,113.567C170.291,113.567 172.084,111.774 172.084,109.564L172.084,101.558Z" style="fill:rgb(233,178,76);"/>
                </g>
                <g transform="matrix(0.464009,0,0,0.464009,93.6531,52.2886)">
                    <path d="M172.084,101.558C172.084,99.349 170.291,97.555 168.081,97.555L160.075,97.555C157.866,97.555 156.072,99.349 156.072,101.558L156.072,109.564C156.072,111.774 157.866,113.567 160.075,113.567L168.081,113.567C170.291,113.567 172.084,111.774 172.084,109.564L172.084,101.558Z" style="fill:rgb(233,178,76);"/>
                </g>
                <g transform="matrix(0.464009,0,0,0.464009,103.653,52.2886)">
                    <path d="M172.084,101.558C172.084,99.349 170.291,97.555 168.081,97.555L160.075,97.555C157.866,97.555 156.072,99.349 156.072,101.558L156.072,109.564C156.072,111.774 157.866,113.567 160.075,113.567L168.081,113.567C170.291,113.567 172.084,111.774 172.084,109.564L172.084,101.558Z" style="fill:rgb(233,178,76);"/>
                </g>
                <g transform="matrix(0.464009,0,0,0.464009,113.653,52.2886)">
                    <path d="M172.084,101.558C172.084,99.349 170.291,97.555 168.081,97.555L160.075,97.555C157.866,97.555 156.072,99.349 156.072,101.558L156.072,109.564C156.072,111.774 157.866,113.567 160.075,113.567L168.081,113.567C170.291,113.567 172.084,111.774 172.084,109.564L172.084,101.558Z" style="fill:rgb(233,178,76);"/>
                </g>
                <g transform="matrix(0.464009,0,0,0.464009,83.6531,62.2886)">
                    <path d="M172.084,101.558C172.084,99.349 170.291,97.555 168.081,97.555L160.075,97.555C157.866,97.555 156.072,99.349 156.072,101.558L156.072,109.564C156.072,111.774 157.866,113.567 160.075,113.567L168.081,113.567C170.291,113.567 172.084,111.774 172.084,109.564L172.084,101.558Z" style="fill:rgb(233,178,76);"/>
                </g>
                <g transform="matrix(0.464009,0,0,0.464009,93.6531,62.2886)">
                    <path d="M172.084,101.558C172.084,99.349 170.291,97.555 168.081,97.555L160.075,97.555C157.866,97.555 156.072,99.349 156.072,101.558L156.072,109.564C156.072,111.774 157.866,113.567 160.075,113.567L168.081,113.567C170.291,113.567 172.084,111.774 172.084,109.564L172.084,101.558Z" style="fill:rgb(233,178,76);"/>
                </g>
                <g transform="matrix(0.464009,0,0,0.464009,103.653,62.2886)">
                    <path d="M172.084,101.558C172.084,99.349 170.291,97.555 168.081,97.555L160.075,97.555C157.866,97.555 156.072,99.349 156.072,101.558L156.072,109.564C156.072,111.774 157.866,113.567 160.075,113.567L168.081,113.567C170.291,113.567 172.084,111.774 172.084,109.564L172.084,101.558Z" style="fill:rgb(233,178,76);"/>
                </g>
                <g transform="matrix(0.464009,0,0,0.464009,113.653,62.2886)">
                    <path d="M172.084,101.558C172.084,99.349 170.291,97.555 168.081,97.555L160.075,97.555C157.866,97.555 156.072,99.349 156.072,101.558L156.072,109.564C156.072,111.774 157.866,113.567 160.075,113.567L168.081,113.567C170.291,113.567 172.084,111.774 172.084,109.564L172.084,101.558Z" style="fill:rgb(233,178,76);"/>
                </g>
                <g transform="matrix(0.464009,0,0,0.464009,83.6531,72.2886)">
                    <path d="M172.084,101.558C172.084,99.349 170.291,97.555 168.081,97.555L160.075,97.555C157.866,97.555 156.072,99.349 156.072,101.558L156.072,109.564C156.072,111.774 157.866,113.567 160.075,113.567L168.081,113.567C170.291,113.567 172.084,111.774 172.084,109.564L172.084,101.558Z" style="fill:rgb(233,178,76);"/>
                </g>
                <g transform="matrix(0.464009,0,0,0.464009,93.6531,72.2886)">
                    <path d="M172.084,101.558C172.084,99.349 170.291,97.555 168.081,97.555L160.075,97.555C157.866,97.555 156.072,99.349 156.072,101.558L156.072,109.564C156.072,111.774 157.866,113.567 160.075,113.567L168.081,113.567C170.291,113.567 172.084,111.774 172.084,109.564L172.084,101.558Z" style="fill:rgb(233,178,76);"/>
                </g>
                <g transform="matrix(0.464009,0,0,0.464009,103.653,72.2886)">
                    <path d="M172.084,101.558C172.084,99.349 170.291,97.555 168.081,97.555L160.075,97.555C157.866,97.555 156.072,99.349 156.072,101.558L156.072,109.564C156.072,111.774 157.866,113.567 160.075,113.567L168.081,113.567C170.291,113.567 172.084,111.774 172.084,109.564L172.084,101.558Z" style="fill:rgb(233,178,76);"/>
                </g>
                <g transform="matrix(0.464009,0,0,0.464009,113.653,72.2886)">
                    <path d="M172.084,101.558C172.084,99.349 170.291,97.555 168.081,97.555L160.075,97.555C157.866,97.555 156.072,99.349 156.072,101.558L156.072,109.564C156.072,111.774 157.866,113.567 160.075,113.567L168.081,113.567C170.291,113.567 172.084,111.774 172.084,109.564L172.084,101.558Z" style="fill:rgb(233,178,76);"/>
                </g>
                <g transform="matrix(0.464009,0,0,0.464009,83.6531,82.2886)">
                    <path d="M172.084,101.558C172.084,99.349 170.291,97.555 168.081,97.555L160.075,97.555C157.866,97.555 156.072,99.349 156.072,101.558L156.072,109.564C156.072,111.774 157.866,113.567 160.075,113.567L168.081,113.567C170.291,113.567 172.084,111.774 172.084,109.564L172.084,101.558Z" style="fill:rgb(233,178,76);"/>
                </g>
                <g transform="matrix(0.464009,0,0,0.464009,93.6531,82.2886)">
                    <path d="M172.084,101.558C172.084,99.349 170.291,97.555 168.081,97.555L160.075,97.555C157.866,97.555 156.072,99.349 156.072,101.558L156.072,109.564C156.072,111.774 157.866,113.567 160.075,113.567L168.081,113.567C170.291,113.567 172.084,111.774 172.084,109.564L172.084,101.558Z" style="fill:rgb(233,178,76);"/>
                </g>
                <g transform="matrix(0.464009,0,0,0.464009,103.653,82.2886)">
                    <path d="M172.084,101.558C172.084,99.349 170.291,97.555 168.081,97.555L160.075,97.555C157.866,97.555 156.072,99.349 156.072,101.558L156.072,109.564C156.072,111.774 157.866,113.567 160.075,113.567L168.081,113.567C170.291,113.567 172.084,111.774 172.084,109.564L172.084,101.558Z" style="fill:rgb(233,178,76);"/>
                </g>
                <g transform="matrix(0.464009,0,0,0.464009,113.653,82.2886)">
                    <path d="M172.084,101.558C172.084,99.349 170.291,97.555 168.081,97.555L160.075,97.555C157.866,97.555 156.072,99.349 156.072,101.558L156.072,109.564C156.072,111.774 157.866,113.567 160.075,113.567L168.081,113.567C170.291,113.567 172.084,111.774 172.084,109.564L172.084,101.558Z" style="fill:rgb(233,178,76);"/>
                </g>
            </g>
            <g transform="matrix(1,0,0,1.04252,232.03,-28.9506)">
                <g transform="matrix(30,0,0,30,205.263,101.941)">
                    <path d="M0.125,-0.185L0.09,-0.548L0.09,-0.716L0.238,-0.716L0.238,-0.548L0.203,-0.185L0.125,-0.185ZM0.096,-0L0.096,-0.137L0.233,-0.137L0.233,-0L0.096,-0Z" style="fill:rgb(255,0,14);fill-rule:nonzero;"/>
                </g>
                <g transform="matrix(30,0,0,30,215.253,101.941)">
                    <path d="M0.125,-0.185L0.09,-0.548L0.09,-0.716L0.238,-0.716L0.238,-0.548L0.203,-0.185L0.125,-0.185ZM0.096,-0L0.096,-0.137L0.233,-0.137L0.233,-0L0.096,-0Z" style="fill:rgb(255,0,14);fill-rule:nonzero;"/>
                </g>
            </g>
        </g>
    </g>
</svg>
