<?xml version="1.0" encoding="UTF-8" standalone="no"?>
<!DOCTYPE svg PUBLIC "-//W3C//DTD SVG 1.1//EN" "http://www.w3.org/Graphics/SVG/1.1/DTD/svg11.dtd">
<svg width="100%" height="100%" viewBox="0 0 114 49" version="1.1" xmlns="http://www.w3.org/2000/svg" xmlns:xlink="http://www.w3.org/1999/xlink" xml:space="preserve" xmlns:serif="http://www.serif.com/" style="fill-rule:evenodd;clip-rule:evenodd;stroke-linecap:round;stroke-linejoin:round;stroke-miterlimit:1.5;">
    <g transform="matrix(1,0,0,1,-446.459,-41.8719)">
        <g id="bw_g_128">
            <g transform="matrix(0.909922,0,0,1.01373,314.556,-50.9745)">
                <path d="M268.995,106.707C268.995,98.772 261.817,92.33 252.977,92.33L161.804,92.33C152.963,92.33 145.786,98.772 145.786,106.707L145.786,124.331C145.786,132.267 152.963,138.709 161.804,138.709L252.977,138.709C261.817,138.709 268.995,132.267 268.995,124.331L268.995,106.707Z" style="fill:white;stroke:black;stroke-width:1.56px;"/>
            </g>
            <g transform="matrix(0.454961,0,0,1.01373,380.883,-50.9745)">
                <path d="M268.995,92.33L177.822,92.33C160.141,92.33 145.786,98.772 145.786,106.707L145.786,124.331C145.786,132.267 160.141,138.709 177.822,138.709L268.995,138.709L268.995,92.33Z" style="stroke:black;stroke-width:1.91px;"/>
            </g>
            <g transform="matrix(1,0,0,1,314.537,-30.1617)">
                <text x="201.906px" y="101.941px" style="font-family:'Arial-BoldMT', 'Arial', sans-serif;font-weight:700;font-size:16px;">128</text>
            </g>
            <g transform="matrix(1,0,0,1,303.102,-50.1386)">
                <g transform="matrix(0.464009,0,0,0.464009,83.6531,52.2886)">
                    <path d="M172.084,101.558C172.084,99.349 170.291,97.555 168.081,97.555L160.075,97.555C157.866,97.555 156.072,99.349 156.072,101.558L156.072,109.564C156.072,111.774 157.866,113.567 160.075,113.567L168.081,113.567C170.291,113.567 172.084,111.774 172.084,109.564L172.084,101.558Z" style="fill:rgb(233,178,76);"/>
                </g>
                <g transform="matrix(0.464009,0,0,0.464009,93.6531,52.2886)">
                    <path d="M172.084,101.558C172.084,99.349 170.291,97.555 168.081,97.555L160.075,97.555C157.866,97.555 156.072,99.349 156.072,101.558L156.072,109.564C156.072,111.774 157.866,113.567 160.075,113.567L168.081,113.567C170.291,113.567 172.084,111.774 172.084,109.564L172.084,101.558Z" style="fill:rgb(233,178,76);"/>
                </g>
                <g transform="matrix(0.464009,0,0,0.464009,103.653,52.2886)">
                    <path d="M172.084,101.558C172.084,99.349 170.291,97.555 168.081,97.555L160.075,97.555C157.866,97.555 156.072,99.349 156.072,101.558L156.072,109.564C156.072,111.774 157.866,113.567 160.075,113.567L168.081,113.567C170.291,113.567 172.084,111.774 172.084,109.564L172.084,101.558Z" style="fill:rgb(233,178,76);"/>
                </g>
                <g transform="matrix(0.464009,0,0,0.464009,113.653,52.2886)">
                    <path d="M172.084,101.558C172.084,99.349 170.291,97.555 168.081,97.555L160.075,97.555C157.866,97.555 156.072,99.349 156.072,101.558L156.072,109.564C156.072,111.774 157.866,113.567 160.075,113.567L168.081,113.567C170.291,113.567 172.084,111.774 172.084,109.564L172.084,101.558Z" style="fill:rgb(233,178,76);"/>
                </g>
                <g transform="matrix(0.464009,0,0,0.464009,83.6531,62.2886)">
                    <path d="M172.084,101.558C172.084,99.349 170.291,97.555 168.081,97.555L160.075,97.555C157.866,97.555 156.072,99.349 156.072,101.558L156.072,109.564C156.072,111.774 157.866,113.567 160.075,113.567L168.081,113.567C170.291,113.567 172.084,111.774 172.084,109.564L172.084,101.558Z" style="fill:rgb(233,178,76);"/>
                </g>
                <g transform="matrix(0.464009,0,0,0.464009,93.6531,62.2886)">
                    <path d="M172.084,101.558C172.084,99.349 170.291,97.555 168.081,97.555L160.075,97.555C157.866,97.555 156.072,99.349 156.072,101.558L156.072,109.564C156.072,111.774 157.866,113.567 160.075,113.567L168.081,113.567C170.291,113.567 172.084,111.774 172.084,109.564L172.084,101.558Z" style="fill:rgb(233,178,76);"/>
                </g>
                <g transform="matrix(0.464009,0,0,0.464009,103.653,62.2886)">
                    <path d="M172.084,101.558C172.084,99.349 170.291,97.555 168.081,97.555L160.075,97.555C157.866,97.555 156.072,99.349 156.072,101.558L156.072,109.564C156.072,111.774 157.866,113.567 160.075,113.567L168.081,113.567C170.291,113.567 172.084,111.774 172.084,109.564L172.084,101.558Z" style="fill:rgb(233,178,76);"/>
                </g>
                <g transform="matrix(0.464009,0,0,0.464009,113.653,62.2886)">
                    <path d="M172.084,101.558C172.084,99.349 170.291,97.555 168.081,97.555L160.075,97.555C157.866,97.555 156.072,99.349 156.072,101.558L156.072,109.564C156.072,111.774 157.866,113.567 160.075,113.567L168.081,113.567C170.291,113.567 172.084,111.774 172.084,109.564L172.084,101.558Z" style="fill:rgb(233,178,76);"/>
                </g>
                <g transform="matrix(0.464009,0,0,0.464009,83.6531,72.2886)">
                    <path d="M172.084,101.558C172.084,99.349 170.291,97.555 168.081,97.555L160.075,97.555C157.866,97.555 156.072,99.349 156.072,101.558L156.072,109.564C156.072,111.774 157.866,113.567 160.075,113.567L168.081,113.567C170.291,113.567 172.084,111.774 172.084,109.564L172.084,101.558Z" style="fill:rgb(233,178,76);"/>
                </g>
                <g transform="matrix(0.464009,0,0,0.464009,93.6531,72.2886)">
                    <path d="M172.084,101.558C172.084,99.349 170.291,97.555 168.081,97.555L160.075,97.555C157.866,97.555 156.072,99.349 156.072,101.558L156.072,109.564C156.072,111.774 157.866,113.567 160.075,113.567L168.081,113.567C170.291,113.567 172.084,111.774 172.084,109.564L172.084,101.558Z" style="fill:rgb(233,178,76);"/>
                </g>
                <g transform="matrix(0.464009,0,0,0.464009,103.653,72.2886)">
                    <path d="M172.084,101.558C172.084,99.349 170.291,97.555 168.081,97.555L160.075,97.555C157.866,97.555 156.072,99.349 156.072,101.558L156.072,109.564C156.072,111.774 157.866,113.567 160.075,113.567L168.081,113.567C170.291,113.567 172.084,111.774 172.084,109.564L172.084,101.558Z" style="fill:rgb(233,178,76);"/>
                </g>
                <g transform="matrix(0.464009,0,0,0.464009,113.653,72.2886)">
                    <path d="M172.084,101.558C172.084,99.349 170.291,97.555 168.081,97.555L160.075,97.555C157.866,97.555 156.072,99.349 156.072,101.558L156.072,109.564C156.072,111.774 157.866,113.567 160.075,113.567L168.081,113.567C170.291,113.567 172.084,111.774 172.084,109.564L172.084,101.558Z" style="fill:rgb(233,178,76);"/>
                </g>
                <g transform="matrix(0.464009,0,0,0.464009,83.6531,82.2886)">
                    <path d="M172.084,101.558C172.084,99.349 170.291,97.555 168.081,97.555L160.075,97.555C157.866,97.555 156.072,99.349 156.072,101.558L156.072,109.564C156.072,111.774 157.866,113.567 160.075,113.567L168.081,113.567C170.291,113.567 172.084,111.774 172.084,109.564L172.084,101.558Z" style="fill:rgb(233,178,76);"/>
                </g>
                <g transform="matrix(0.464009,0,0,0.464009,93.6531,82.2886)">
                    <path d="M172.084,101.558C172.084,99.349 170.291,97.555 168.081,97.555L160.075,97.555C157.866,97.555 156.072,99.349 156.072,101.558L156.072,109.564C156.072,111.774 157.866,113.567 160.075,113.567L168.081,113.567C170.291,113.567 172.084,111.774 172.084,109.564L172.084,101.558Z" style="fill:rgb(233,178,76);"/>
                </g>
                <g transform="matrix(0.464009,0,0,0.464009,103.653,82.2886)">
                    <path d="M172.084,101.558C172.084,99.349 170.291,97.555 168.081,97.555L160.075,97.555C157.866,97.555 156.072,99.349 156.072,101.558L156.072,109.564C156.072,111.774 157.866,113.567 160.075,113.567L168.081,113.567C170.291,113.567 172.084,111.774 172.084,109.564L172.084,101.558Z" style="fill:rgb(233,178,76);"/>
                </g>
                <g transform="matrix(0.464009,0,0,0.464009,113.653,82.2886)">
                    <path d="M172.084,101.558C172.084,99.349 170.291,97.555 168.081,97.555L160.075,97.555C157.866,97.555 156.072,99.349 156.072,101.558L156.072,109.564C156.072,111.774 157.866,113.567 160.075,113.567L168.081,113.567C170.291,113.567 172.084,111.774 172.084,109.564L172.084,101.558Z" style="fill:rgb(233,178,76);"/>
                </g>
            </g>
        </g>
    </g>
</svg>
