<?xml version="1.0" encoding="UTF-8" standalone="no"?>
<!DOCTYPE svg PUBLIC "-//W3C//DTD SVG 1.1//EN" "http://www.w3.org/Graphics/SVG/1.1/DTD/svg11.dtd">
<svg width="100%" height="100%" viewBox="0 0 114 50" version="1.1" xmlns="http://www.w3.org/2000/svg" xmlns:xlink="http://www.w3.org/1999/xlink" xml:space="preserve" xmlns:serif="http://www.serif.com/" style="fill-rule:evenodd;clip-rule:evenodd;stroke-linecap:round;stroke-linejoin:round;stroke-miterlimit:1.5;">
    <g transform="matrix(1,0,0,1,-566.459,-292.988)">
        <g id="bw_kbd" transform="matrix(1,0,0,1,120,51.1165)">
            <g transform="matrix(0.909922,0,0,1.03956,314.556,146.641)">
                <path d="M268.995,106.707C268.995,98.772 261.634,92.33 252.569,92.33L162.212,92.33C153.146,92.33 145.786,98.772 145.786,106.707L145.786,124.331C145.786,132.267 153.146,138.709 162.212,138.709L252.569,138.709C261.634,138.709 268.995,132.267 268.995,124.331L268.995,106.707Z" style="fill:white;stroke:black;stroke-width:1.54px;"/>
            </g>
            <g transform="matrix(1,0,0,1,316.094,169.916)">
                <text x="197.921px" y="101.941px" style="font-family:'Arial-BoldMT', 'Arial', sans-serif;font-weight:700;font-size:16px;">KBD</text>
            </g>
            <g transform="matrix(0.454961,0,0,1.01373,380.883,149.026)">
                <path d="M268.995,92.33L177.822,92.33C160.141,92.33 145.786,98.772 145.786,106.707L145.786,124.331C145.786,132.267 160.141,138.709 177.822,138.709L268.995,138.709L268.995,92.33Z" style="stroke:black;stroke-width:1.91px;"/>
            </g>
            <g id="path1334" transform="matrix(0.0947921,0,0,0.0947921,452.713,255.321)">
                <path d="M462.836,114.054L412.799,85.158L412.799,105.771L157.046,105.771L206.844,53.159C211.082,49.762 216.627,47.379 222.331,47.247C245.406,47.247 259.109,47.241 264.153,47.231C267.572,56.972 276.756,64.003 287.674,64.003C301.486,64.003 312.695,52.795 312.695,38.978C312.695,25.155 301.487,13.951 287.674,13.951C276.756,13.951 267.572,20.978 264.153,30.711L222.821,30.704C211.619,30.704 199.881,36.85 192.41,44.055C192.614,43.841 192.826,43.613 192.398,44.059C192.24,44.237 139.564,99.873 139.564,99.873C135.335,103.265 129.793,105.633 124.093,105.769L95.161,105.769C91.326,86.656 74.448,72.256 54.202,72.256C31.119,72.256 12.408,90.967 12.408,114.043C12.408,137.126 31.119,155.838 54.202,155.838C74.452,155.838 91.33,141.426 95.165,122.297L123.59,122.297C123.663,122.297 123.736,122.301 123.81,122.297L186.681,122.297C192.37,122.442 197.905,124.813 202.13,128.209C202.13,128.209 254.794,183.841 254.957,184.021C255.379,184.468 255.169,184.235 254.961,184.025C262.432,191.229 274.175,197.371 285.379,197.371L325.211,197.362L325.211,214.139L375.261,214.139L375.261,164.094L325.211,164.094L325.211,180.849C325.211,180.849 314.72,180.83 284.891,180.83C279.186,180.699 273.635,178.319 269.399,174.922L219.59,122.3L412.799,122.3L412.799,142.946L462.836,114.054Z" style="fill:white;fill-rule:nonzero;"/>
            </g>
        </g>
    </g>
</svg>
